<?xml version="1.0" encoding="utf-8"?>
<svg style="enable-background:new -242 -68.6 751.4 142.3;" viewBox="52.85 -28.95 150.01 63" xmlns="http://www.w3.org/2000/svg">
  <defs>
    <style type="text/css">   .st0{fill:black;}  </style>
  </defs>
  <path d="M 116.519 13.312 C 116.61 13.527 116.76 13.711 116.95 13.844 C 117.14 13.977 117.364 14.053 117.596 14.065 L 121.103 14.065 C 121.542 14.065 121.775 13.727 121.619 13.314 L 113.286 -8.805 C 113.192 -9.019 113.042 -9.202 112.852 -9.335 C 112.661 -9.467 112.437 -9.544 112.205 -9.555 L 108.521 -9.555 C 108.29 -9.544 108.066 -9.468 107.875 -9.335 C 107.683 -9.202 107.533 -9.019 107.44 -8.805 L 99.077 13.312 C 98.917 13.724 99.154 14.064 99.593 14.064 L 103.068 14.064 C 103.59 14.042 104.101 13.911 104.568 13.678 L 113.907 8.541 C 113.993 8.49 114.091 8.459 114.19 8.45 C 114.292 8.442 114.392 8.456 114.485 8.492 C 114.58 8.528 114.664 8.585 114.734 8.658 C 114.803 8.731 114.855 8.818 114.887 8.914 L 116.519 13.312 Z M 106.99 7.217 C 106.605 7.427 106.417 7.264 106.57 6.849 L 110.082 -2.531 C 110.241 -2.945 110.488 -2.943 110.642 -2.531 L 112.749 3.144 C 112.818 3.354 112.813 3.581 112.735 3.788 C 112.658 3.994 112.513 4.168 112.324 4.28 L 106.99 7.217 Z M 128.302 14.069 C 128.515 14.069 128.719 13.985 128.869 13.833 C 129.019 13.682 129.104 13.478 129.104 13.264 L 129.104 0.268 C 129.104 0.054 129.019 -0.15 128.869 -0.301 C 128.719 -0.452 128.515 -0.537 128.302 -0.537 L 125.126 -0.537 C 124.913 -0.537 124.709 -0.452 124.56 -0.301 C 124.409 -0.15 124.325 0.054 124.325 0.268 L 124.325 13.266 C 124.325 13.479 124.409 13.684 124.56 13.835 C 124.709 13.986 124.913 14.072 125.126 14.072 L 128.302 14.069 Z M 137.112 14.069 C 137.325 14.069 137.528 13.985 137.679 13.833 C 137.829 13.682 137.913 13.478 137.913 13.264 L 137.913 -8.75 C 137.913 -8.964 137.829 -9.169 137.679 -9.32 C 137.528 -9.471 137.325 -9.555 137.112 -9.555 L 133.949 -9.555 C 133.737 -9.555 133.532 -9.471 133.383 -9.32 C 133.233 -9.169 133.148 -8.964 133.148 -8.75 L 133.148 13.267 C 133.148 13.48 133.233 13.686 133.383 13.836 C 133.532 13.988 133.737 14.073 133.949 14.073 L 137.112 14.069 Z M 148.846 14.655 C 147.298 14.655 145.783 14.194 144.496 13.33 C 143.208 12.465 142.204 11.235 141.611 9.797 C 141.017 8.359 140.862 6.775 141.164 5.25 C 141.466 3.721 142.212 2.319 143.308 1.218 C 144.402 0.117 145.797 -0.633 147.316 -0.936 C 148.835 -1.241 150.41 -1.085 151.841 -0.489 C 153.271 0.107 154.493 1.116 155.354 2.411 C 156.215 3.705 156.674 5.227 156.674 6.783 C 156.672 8.871 155.846 10.871 154.379 12.347 C 152.912 13.822 150.922 14.653 148.846 14.655 Z M 148.846 3.451 C 147.161 3.451 145.79 4.946 145.79 6.783 C 145.79 8.591 147.188 10.117 148.846 10.117 C 150.504 10.117 151.9 8.591 151.9 6.783 C 151.9 4.946 150.531 3.451 148.846 3.451 Z M 129.437 -6.012 C 129.437 -6.554 129.277 -7.084 128.978 -7.533 C 128.679 -7.984 128.253 -8.335 127.755 -8.542 C 127.258 -8.749 126.711 -8.804 126.183 -8.698 C 125.654 -8.592 125.169 -8.331 124.787 -7.949 C 124.407 -7.566 124.147 -7.079 124.043 -6.547 C 123.937 -6.016 123.991 -5.465 124.197 -4.965 C 124.403 -4.464 124.753 -4.038 125.201 -3.737 C 125.648 -3.436 126.175 -3.275 126.714 -3.275 C 127.435 -3.275 128.128 -3.564 128.638 -4.077 C 129.149 -4.59 129.437 -5.287 129.437 -6.012 Z" fill="black" style=""/>
</svg>