<?xml version="1.0" encoding="utf-8"?>
<svg style="enable-background:new -242 -68.6 751.4 142.3;" viewBox="-13.88 -40.35 283.47 94.92" xmlns="http://www.w3.org/2000/svg">
  <defs>
    <style type="text/css">   .st0{fill:black;}  </style>
  </defs>
  <g transform="matrix(0.579546, 0, 0, 0.579546, -116.106529, -165.389648)" style="">
    <path fill="black" d="M537.344,322.825c8.021-0.028,15.68-3.494,20.469-10.032c3.312-4.524,4.865-10.234,4.865-15.793 c0-5.56-1.553-11.267-4.865-15.795c-4.789-6.537-12.447-10.002-20.469-10.031c-8.027,0.028-15.67,3.494-20.471,10.031 C513.566,285.733,512,291.44,512,297c0,5.559,1.566,11.269,4.873,15.793C521.674,319.331,529.316,322.797,537.344,322.825 M524.977,291.068c1.854-5.552,6.262-9.987,12.367-10.017c6.098,0.029,10.512,4.465,12.377,10.017 c0.586,1.767,0.98,3.923,0.98,5.932c0,2.001-0.395,4.164-0.98,5.932c-1.865,5.552-6.279,9.986-12.377,10.019 c-6.105-0.032-10.514-4.467-12.367-10.019c-0.588-1.768-0.982-3.931-0.982-5.932C523.994,294.993,524.389,292.835,524.977,291.068"/>
    <path fill="black" d="M353.376,323.015h8.502c0.807,0,1.472-0.667,1.472-1.472v-69.889c0-0.81-0.665-1.472-1.472-1.472h-8.502 c-0.818,0-1.469,0.662-1.469,1.472v69.889C351.908,322.348,352.559,323.015,353.376,323.015"/>
    <path fill="black" d="M333.4,323.015h8.508c0.799,0,1.464-0.667,1.464-1.472v-69.889c0-0.81-0.665-1.472-1.464-1.472H333.4 c-0.812,0-1.465,0.662-1.465,1.472v69.889C331.935,322.348,332.588,323.015,333.4,323.015"/>
    <path fill="black" d="M482.584,323.015h8.502c0.818,0,1.477-0.667,1.477-1.472l0.01-28.531c0-8.887,5.902-13.157,15.516-11.176 c1.16,0.24,2.027-0.367,2.01-1.688v-5.965c0-1.521-0.146-2.123-1.268-2.445h-0.006c-1.57-0.412-4.971-0.568-5.896-0.563 c-6.184,0-11.736,2.487-15.547,6.272c-2.797,2.793-6.262,7.175-6.262,14.812v29.285 C481.119,322.348,481.781,323.015,482.584,323.015"/>
    <path fill="black" d="M448.367,322.825c5.254-0.021,10.348-1.518,14.58-4.383v6.246c0,8.482-7.42,10.02-12.162,10.314 c-3.182,0.194-7.715-0.238-9.754-0.545c-1.299-0.188-2.217,0.032-2.217,1.395v7.521c-0.023,0.555,0.428,1.151,1.344,1.229 c11.01,0.947,18.432,0.744,24.016-2.426c3.973-2.256,6.695-5.983,8.127-10.334c1.045-3.131,1.406-6.983,1.406-10.324V297 c0-5.632-1.504-11.176-4.873-15.794c-4.789-6.538-12.441-10.004-20.467-10.031c-8.025,0.027-15.676,3.493-20.473,10.031 c-6.549,8.953-6.555,22.627,0,31.587C432.691,319.332,440.342,322.797,448.367,322.825 M436.006,291.068 c1.844-5.552,6.26-10.017,12.361-10.017c13.666,0,14.123,13.941,14.123,15.948c0,2.001-0.457,15.95-14.123,15.95 c-6.102,0-10.518-4.467-12.361-10.02c-0.602-1.766-0.994-3.93-0.994-5.931C435.012,294.993,435.404,292.835,436.006,291.068"/>
    <path fill="black" d="M395.254,322.825c8.157,0.307,13.617-1.1,17.699-3.461c0.807-0.461,0.98-1.02,0.98-2.498v-6.597 c0-1.354-0.81-1.969-2.069-1.164c-4.405,2.806-9.712,4.524-16.463,3.99c-6.801-0.53-12.41-5.3-12.95-12.041h33.576 c0.741,0,1.331-0.555,1.371-1.366c0.557-9.188-2.084-28.5-22.749-28.5c-15.114,0-21.652,10.151-23.861,18.728 c-0.587,2.276-0.867,4.73-0.867,7.084c0,5.559,1.554,11.269,4.864,15.793C379.576,319.332,387.242,322.524,395.254,322.825 M394.649,281.064c4.952,0,10.766,2.83,10.766,10.9h-22.864C382.551,288.205,385.683,281.064,394.649,281.064"/>
    <path fill="black" d="M284.484,319.239c3.253,2.566,7.692,3.78,13.202,3.78l4.002-0.001l21.018-0.004 c0.812,0,1.467-0.667,1.467-1.472l-0.01-14.478l-0.01-15.18c0-6.754-1.504-11.936-4.742-15.401 c-3.368-3.596-9.767-5.297-15.794-5.297c-6.011,0-12.192,1.552-17.319,4.597c-0.332,0.198-0.53,0.558-0.53,0.942v0.065l0.457,7.442 c0.073,1.007,1.26,1.335,2.166,0.765c7.416-4.609,16.316-5.459,20.818-3.198c3.166,1.597,4.009,4.965,4.009,7.142v1.087h-12.393 c-5.313,0-21.613,1.889-21.613,16.949v0.087v0.071v0.092C279.212,312.368,280.979,316.514,284.484,319.239 M301.492,299.099h11.726 v7.967v6.75h-11.53h-3.269c-1.958-0.125-3.676-0.63-5.245-1.84c-1.685-1.309-2.461-2.846-2.477-4.859 c0-0.017,0.001-0.034,0.001-0.051C290.745,304.388,292.55,299.099,301.492,299.099"/>
  </g>
</svg>