<?xml version="1.0" encoding="utf-8"?>
<svg style="enable-background:new -242 -68.6 751.4 142.3;" viewBox="-20.22 -28.47 296.15 61.28" xmlns="http://www.w3.org/2000/svg">
  <defs>
    <style type="text/css">   .st0{fill:black;}  </style>
  </defs>
  <path d="M 57.866 16.695 C 59.5 16.695 60.623 16.394 61.237 15.84 C 61.849 15.288 62.155 14.332 62.155 13.026 L 62.155 -2.303 C 62.155 -3.609 61.849 -4.565 61.237 -5.067 C 60.623 -5.57 59.704 -5.871 58.428 -5.871 L 57.05 -5.871 L 57.05 -7.881 C 57.559 -7.982 58.224 -8.182 59.092 -8.384 C 59.96 -8.534 60.879 -8.786 61.849 -8.987 C 62.767 -9.238 63.686 -9.49 64.502 -9.69 C 65.319 -9.892 66.034 -10.092 66.545 -10.245 L 68.33 -10.245 L 68.33 13.026 C 68.33 14.332 68.637 15.288 69.249 15.84 C 69.862 16.394 70.985 16.695 72.619 16.695 L 73.027 16.695 L 73.027 19.006 L 57.204 19.006 L 57.204 16.695 L 57.866 16.695 Z" fill="black" style=""/>
  <path d="M 76.654 16.695 C 78.186 16.695 79.207 16.394 79.819 15.842 C 80.432 15.288 80.688 14.333 80.688 13.027 L 80.688 -2.301 C 80.688 -3.609 80.38 -4.563 79.768 -5.064 C 79.157 -5.568 78.238 -5.869 76.962 -5.869 L 75.99 -5.869 L 75.99 -7.881 C 76.501 -7.98 77.166 -8.182 77.981 -8.383 C 78.799 -8.585 79.666 -8.785 80.585 -8.985 C 81.503 -9.238 82.321 -9.438 83.136 -9.689 C 83.954 -9.941 84.617 -10.091 85.077 -10.242 L 86.864 -10.242 L 86.864 -5.768 L 87.169 -5.768 C 87.987 -7.077 89.16 -8.132 90.641 -9.036 C 92.173 -9.941 93.907 -10.343 95.848 -10.343 C 98.604 -10.343 100.645 -9.589 102.023 -8.03 C 103.402 -6.472 104.117 -4.462 104.117 -1.899 L 104.117 12.626 C 104.117 14.134 104.371 15.189 104.882 15.791 C 105.392 16.394 106.412 16.746 107.893 16.746 L 108.199 16.746 L 108.199 19.059 L 94.162 19.059 L 94.162 16.695 L 94.468 16.695 C 95.948 16.695 96.867 16.394 97.276 15.741 C 97.685 15.138 97.889 14.185 97.889 12.876 L 97.889 0.161 C 97.889 -2 97.379 -3.508 96.409 -4.411 C 95.387 -5.266 94.111 -5.72 92.581 -5.72 C 91.559 -5.669 90.539 -5.467 89.467 -5.016 C 88.445 -4.563 87.579 -4.01 86.864 -3.306 L 86.864 13.027 C 86.864 14.384 87.118 15.338 87.579 15.893 C 88.088 16.444 89.007 16.695 90.335 16.695 L 90.844 16.695 L 90.844 19.008 L 76.398 19.008 L 76.398 16.695 L 76.654 16.695 Z" fill="black" style=""/>
  <path d="M 121.982 19.812 C 121.114 19.812 120.299 19.712 119.481 19.461 C 118.665 19.259 118.001 18.858 117.389 18.304 C 116.777 17.753 116.266 17.049 115.908 16.194 C 115.551 15.338 115.347 14.234 115.347 12.927 C 115.347 12.676 115.347 12.324 115.398 11.872 C 115.398 11.419 115.449 10.917 115.449 10.363 C 115.449 9.811 115.5 9.257 115.5 8.756 C 115.5 8.202 115.551 7.751 115.551 7.399 L 115.959 -5.015 L 109.782 -5.015 L 109.782 -7.327 C 111.415 -8.483 113.049 -9.79 114.734 -11.247 C 116.42 -12.704 117.9 -14.112 119.226 -15.519 L 121.165 -15.519 L 121.165 -9.739 L 128.925 -9.739 L 128.925 -5.015 L 121.165 -5.015 L 121.165 11.269 C 121.165 13.58 122.187 14.787 124.278 14.787 C 125.147 14.787 125.811 14.586 126.373 14.134 C 126.883 13.68 127.291 13.178 127.598 12.626 L 129.078 12.626 C 128.975 13.329 128.821 14.083 128.517 14.887 C 128.21 15.69 127.749 16.495 127.188 17.249 C 126.576 18.003 125.861 18.606 124.993 19.109 C 124.127 19.61 123.105 19.812 121.982 19.812 Z" fill="black" style=""/>
  <path d="M 147.096 13.481 C 149.086 13.481 150.72 12.979 151.944 12.023 C 153.17 11.018 154.038 9.862 154.496 8.454 L 156.538 8.454 C 156.436 9.509 156.13 10.667 155.672 11.973 C 155.211 13.28 154.496 14.536 153.628 15.692 C 152.762 16.849 151.587 17.853 150.159 18.658 C 148.729 19.461 147.045 19.863 145.001 19.863 C 143.267 19.863 141.634 19.511 140.103 18.858 C 138.571 18.205 137.193 17.251 136.018 15.943 C 134.845 14.687 133.926 13.129 133.211 11.32 C 132.496 9.509 132.189 7.45 132.189 5.188 C 132.189 2.927 132.547 0.765 133.211 -1.145 C 133.926 -3.053 134.845 -4.764 136.071 -6.171 C 137.295 -7.578 138.724 -8.683 140.358 -9.438 C 141.991 -10.24 143.828 -10.592 145.769 -10.592 C 147.3 -10.592 148.677 -10.342 150.005 -9.838 C 151.332 -9.336 152.455 -8.633 153.424 -7.727 C 154.395 -6.824 155.16 -5.717 155.672 -4.46 C 156.233 -3.205 156.538 -1.798 156.538 -0.188 C 156.538 0.063 156.538 0.313 156.538 0.515 C 156.538 0.765 156.538 1.017 156.487 1.219 L 137.551 1.219 C 137.498 1.469 137.498 1.67 137.498 1.923 C 137.498 2.122 137.498 2.374 137.498 2.576 C 137.498 4.084 137.704 5.49 138.163 6.797 C 138.623 8.103 139.235 9.259 140.05 10.264 C 140.868 11.269 141.888 12.023 143.063 12.627 C 144.236 13.179 145.563 13.481 147.096 13.481 Z M 144.85 -7.628 C 143.113 -7.628 141.634 -7.074 140.358 -5.918 C 139.081 -4.813 138.266 -3.306 137.959 -1.497 L 150.72 -1.497 C 150.72 -2.2 150.617 -2.903 150.363 -3.607 C 150.107 -4.311 149.802 -4.964 149.341 -5.566 C 148.883 -6.171 148.269 -6.622 147.554 -7.023 C 146.738 -7.426 145.87 -7.628 144.85 -7.628 Z" fill="black" style=""/>
  <path d="M 160.928 16.695 C 162.46 16.695 163.48 16.394 164.094 15.842 C 164.705 15.288 164.961 14.333 164.961 13.027 L 164.961 -2.301 C 164.961 -3.609 164.655 -4.563 164.041 -5.064 C 163.429 -5.568 162.51 -5.869 161.234 -5.869 L 160.265 -5.869 L 160.265 -7.881 C 160.776 -7.98 161.439 -8.182 162.256 -8.383 C 163.072 -8.585 163.94 -8.785 164.858 -8.985 C 165.778 -9.238 166.593 -9.438 167.411 -9.689 C 168.227 -9.941 168.891 -10.091 169.349 -10.242 L 171.137 -10.242 L 171.137 -5.768 L 171.443 -5.768 C 172.259 -7.077 173.434 -8.132 174.915 -9.036 C 176.445 -9.941 178.182 -10.343 180.12 -10.343 C 182.876 -10.343 184.917 -9.589 186.297 -8.03 C 187.676 -6.472 188.389 -4.462 188.389 -1.899 L 188.389 12.626 C 188.389 14.134 188.646 15.189 189.156 15.791 C 189.665 16.394 190.687 16.746 192.167 16.746 L 192.474 16.746 L 192.474 19.059 L 178.436 19.059 L 178.436 16.695 L 178.743 16.695 C 180.223 16.695 181.142 16.394 181.549 15.741 C 181.957 15.138 182.162 14.185 182.162 12.876 L 182.162 0.161 C 182.162 -2 181.652 -3.508 180.682 -4.411 C 179.662 -5.266 178.386 -5.72 176.853 -5.72 C 175.783 -5.72 174.761 -5.518 173.688 -5.064 C 172.669 -4.613 171.801 -4.06 171.086 -3.356 L 171.086 12.977 C 171.086 14.333 171.341 15.288 171.801 15.842 C 172.312 16.394 173.231 16.647 174.557 16.647 L 175.068 16.647 L 175.068 18.957 L 160.622 18.957 L 160.622 16.695 L 160.928 16.695 Z" fill="black" style=""/>
  <path d="M 206.251 19.812 C 205.383 19.812 204.568 19.712 203.749 19.461 C 202.934 19.259 202.269 18.858 201.657 18.304 C 201.046 17.803 200.585 17.097 200.177 16.244 C 199.82 15.389 199.616 14.283 199.616 12.977 C 199.616 12.726 199.616 12.374 199.667 11.922 C 199.667 11.469 199.717 10.968 199.717 10.414 C 199.717 9.862 199.769 9.308 199.769 8.806 C 199.769 8.253 199.82 7.801 199.82 7.45 L 200.228 -4.966 L 194.053 -4.966 L 194.053 -7.327 C 195.684 -8.483 197.318 -9.79 199.004 -11.247 C 200.688 -12.704 202.169 -14.112 203.495 -15.519 L 205.435 -15.519 L 205.435 -9.739 L 213.193 -9.739 L 213.193 -5.015 L 205.435 -5.015 L 205.435 11.269 C 205.435 13.58 206.455 14.787 208.549 14.787 C 209.415 14.787 210.079 14.586 210.641 14.134 C 211.152 13.68 211.56 13.178 211.867 12.626 L 213.347 12.626 C 213.244 13.329 213.09 14.083 212.786 14.887 C 212.478 15.69 212.02 16.495 211.459 17.249 C 210.845 18.003 210.13 18.606 209.264 19.109 C 208.396 19.61 207.374 19.812 206.251 19.812 Z" fill="black" style=""/>
  <path d="M 46.999 19.461 C 45.671 19.461 44.6 19.01 43.681 18.155 C 42.813 17.251 42.354 16.145 42.354 14.887 C 42.354 13.632 42.813 12.526 43.681 11.621 C 44.6 10.717 45.671 10.315 46.999 10.315 C 48.327 10.315 49.397 10.717 50.316 11.621 C 51.235 12.526 51.645 13.581 51.645 14.887 C 51.645 16.196 51.235 17.251 50.316 18.155 C 49.397 19.01 48.327 19.461 46.999 19.461 Z" fill="black" style=""/>
</svg>