<svg version="1.1" id="Layer_2"
  xmlns="http://www.w3.org/2000/svg"
  xmlns:xlink="http://www.w3.org/1999/xlink" x="0px" y="0px" style="enable-background:new -242 -68.6 751.4 142.3;" xml:space="preserve" viewBox="-242 -68.6 739.7 142.3">
  <style type="text/css">   .st0{fill:black;}  </style>
  <g>
    <polygon class="st0" points="-26.3,28.1 -36,28.1 -36,-6.5 -50.1,19.3 -55.8,19.3 -70.3,-6.5 -70.3,28.1 -80,28.1 -80,-24.7 		-70.3,-24.7 -52.9,6 -36,-24.7 -26.3,-24.7 	"></polygon>
    <g>
      <path class="st0" d="M31.7,26.9c-6,1.6-11.7,2.4-17.3,2.4c-8.9,0-16.1-2.8-21.8-8.1c-5.2-5.2-8.1-11.7-8.1-19.3 			c0-8.1,2.8-14.5,8.5-19.8c5.6-5.2,12.5-7.7,21.4-7.7c5.2,0,10.1,0.4,14.9,1.6l-1.2,8.5c-5.2-0.8-9.3-1.2-12.5-1.2 			c-6.4,0-11.7,1.6-15.3,4.8C-3.4-8.5-5-4.1-5,1.9c0,5.2,1.6,9.7,5.2,13.3c3.2,3.2,8.1,5.2,13.7,5.2c2.8,0,5.6-0.4,8.5-0.8V1.9h9.3 			V26.9z"></path>
    </g>
    <polygon class="st0" points="98.2,28.1 88.6,28.1 88.6,-6.5 74,19.3 68.4,19.3 54.3,-6.5 54.3,28.1 44.6,28.1 44.6,-24.7 		54.3,-24.7 71.6,6 88.6,-24.7 98.2,-24.7 	"></polygon>
    <g>
      <path class="st0" d="M166.4-8.1c0-2.4-0.8-4.4-2.4-6s-3.6-2.4-6-2.4h-15.7v16.5h15.7c2.4,0,4.4-0.8,6-2.4 			C165.5-3.7,166.4-5.7,166.4-8.1 M182.1,28.1h-12.5L155.1,8h-12.9v20.2h-10.1v-52.8h27.4c4.8,0,9.3,1.6,12.5,4.8 			c3.2,3.2,4.8,6.9,4.8,11.7c0,3.2-0.8,6.4-2.8,8.9c-2,2.8-4.4,4.8-7.7,6L182.1,28.1z"></path>
    </g>
    <polygon class="st0" points="228.4,28.1 190.5,28.1 190.5,-24.7 228.4,-24.7 228.4,-15.8 200.6,-15.8 200.6,-3.3 226.8,-3.3 		226.8,5.6 200.6,5.6 200.6,19.7 228.4,19.7 	"></polygon>
    <g>
      <path class="st0" d="M280.8,14c0,4.8-2,8.5-6,11.3c-4,2.8-9.3,4-15.7,4c-8.1,0-15.3-1.6-21.8-4.4l2.4-8.1 			c6.9,2.4,13.7,3.6,19.3,3.6c8.1,0,11.7-2,11.7-6.4c0-1.6-0.8-3.2-2.8-4.4c-1.6-0.8-4.8-2.4-10.9-4.4c-6.9-2.4-11.3-4.8-13.7-6.9 			c-2.8-2.4-4-5.6-4-10.1c0-9.3,6.9-13.7,21-13.7c6.9,0,13.3,0.8,18.9,2.4l-1.6,8.1c-6-1.2-11.7-2-17.3-2c-4,0-6.9,0.4-8.9,1.2 			c-1.6,0.8-2.4,2-2.4,4s1.2,3.2,3.2,4.8c1.6,0.8,5.2,2.4,11.7,4.8c6.9,2.4,10.9,4.8,12.9,6.4C279.6,6.4,280.8,9.6,280.8,14"></path>
      <path class="st0" d="M330.4,1.9c0-5.2-1.6-9.7-4.4-13.3c-2.8-3.6-6.9-5.2-12.1-5.2c-4.8,0-8.9,1.6-11.7,5.2 			c-2.8,3.6-4.4,7.7-4.4,13.3c0,5.2,1.6,9.7,4.4,12.9c2.8,3.6,6.9,5.2,12.1,5.2c4.8,0,8.9-1.6,12.1-5.2 			C329.2,11.6,330.4,7.2,330.4,1.9 M340.5,1.9c0,7.7-2.4,14.1-7.7,19.3c-5.2,5.2-11.3,8.1-18.9,8.1s-13.7-2.8-18.9-8.1 			c-5.2-5.2-7.7-11.7-7.7-19.3s2.4-14.1,7.7-19.3c5.2-5.2,11.3-8.1,18.9-8.1s13.7,2.8,18.9,8.1C338.1-12.2,340.5-5.7,340.5,1.9"></path>
      <path class="st0" d="M385.6-8.1c0-2.4-0.8-4.4-2.4-6c-1.6-1.6-3.6-2.4-6-2.4h-15.7v16.5h15.7c2.4,0,4.4-0.8,6-2.4 			C384.8-3.7,385.6-5.7,385.6-8.1 M401.4,28.1h-12.5L374.4,8h-12.9v20.2h-10.1v-52.8h27.4c4.8,0,9.3,1.6,12.5,4.8s4.8,6.9,4.8,11.7 			c0,3.2-0.8,6.4-2.8,8.9c-2,2.8-4.4,4.8-7.7,6L401.4,28.1z"></path>
    </g>
    <polygon class="st0" points="448.5,-15.8 431.2,-15.8 431.2,28.1 421.1,28.1 421.1,-15.8 403.4,-15.8 403.4,-24.7 448.5,-24.7 	"></polygon>
    <g>
      <path class="st0" d="M497.7,14c0,4.8-2,8.5-6,11.3c-4,2.8-9.3,4-15.7,4c-8.1,0-15.3-1.6-21.8-4.4l2.4-8.1 			c6.9,2.4,13.7,3.6,19.3,3.6c8.1,0,11.7-2,11.7-6.4c0-1.6-0.8-3.2-2.8-4.4c-1.6-0.8-4.8-2.4-10.9-4.4c-6.9-2.4-11.3-4.8-13.7-6.9 			c-2.8-2.4-4-5.6-4-10.1c0-9.3,6.9-13.7,21-13.7c6.9,0,13.3,0.8,18.9,2.4l-1.6,8.1c-6-1.2-11.7-2-17.3-2c-4,0-6.9,0.4-8.9,1.2 			c-1.6,0.8-2.4,2-2.4,4s1.2,3.2,3.2,4.8c1.6,0.8,5.2,2.4,11.7,4.8c6.9,2.4,10.9,4.8,12.9,6.4C496.5,6.4,497.7,9.6,497.7,14"></path>
      <path class="st0" d="M509.4-19"></path>
      <path class="st0" d="M-234.7-10.1c0,12.5,2,24.2,8.5,33.9v-8.5c0-10.5,8.5-17.7,16.9-22.6C-218.2-4.1-227.9-6.1-234.7-10.1"></path>
      <path class="st0" d="M-227.5-19h-2.8c-0.4-1.6,4-4.4,5.2-2.4L-227.5-19z M-236.4-20.2c2.4,1.6,5.6,2.4,9.3,2 			c2.8,2,6.9-3.6,10.9-3.6c6-0.8,13.7-1.6,17.7,3.6l-2-4c-5.6-0.4-10.5-2.4-14.9-4.8C-224.3-31.1-228.7-18.2-236.4-20.2"></path>
      <path class="st0" d="M-241.6-40.8c2.8,0.8,5.6,1.6,8.5,1.6c6-2.4,7.7-7.3,5.2-13.7c-3.6-5.2-8.5-8.1-13.7-9.3V-40.8z"></path>
      <path class="st0" d="M-201.3,73.7c0.8-0.8,2-2,2.8-3.2c16.1-21-15.3-33.1-14.5-53.2c0.8-8.1,5.2-14.1,10.5-20.6l-0.4-0.4 			c-4.8,4.8-6.9,8.1-10.1,12.9c-9.7,19.8,4,47.2-10.1,64.1L-201.3,73.7z"></path>
      <path class="st0" d="M-136,2.8c0,29-13.7,54.4-35.1,70.9h70.9V-68.2h-70.9C-149.7-52.1-136-26.3-136,2.8"></path>
      <path class="st0" d="M-241.6,73.7h12.1l2.8-2.8c16.5-22.6-3.2-38.3-15.3-56L-241.6,73.7z"></path>
      <path class="st0" d="M-208.1-68.2h-33.5v2.4c3.2,0.4,6.9,1.6,9.7,2.8c6.9,4,12.1,10.5,11.3,18.5l14.9-1.6c2-4.8,2.8-12.5,0.8-16.5 			C-205.7-65-206.9-67-208.1-68.2"></path>
      <path class="st0" d="M-201.3-68.2c3.2,4.4,3.2,10.1,3.6,14.5c6-4.4,13.3-7.3,21-5.2c-5.2-4-8.9-7.3-15.3-9.7L-201.3-68.2z"></path>
      <path class="st0" d="M-171.5,4l-1.2,3.2l-1.6-4c-3.6,0.8-7.3,2-9.3,6c-0.4,1.2,0.4,3.2-0.8,4c-2.4-0.4-1.2-4.4-1.2-6.9 			c2.8-2.8,10.5-8.9,13.3-6.4C-171.5,0.3-171.1,2.3-171.5,4 M-187.6,33c-2-1.6-1.2-4.4-1.2-6.4l1.2-1.2c2,6.4,7.3-1.2,11.3-0.4 			c2-0.8,1.2-3.6,3.2-3.2C-169.8,31.8-181.9,29.8-187.6,33 M-158.6,34.2c1.6-13.3,0.4-27.4-9.3-36.7c-2-0.4-4.8,0.8-6.4-1.2 			c-4.4,4-10.1,5.6-14.1,10.1c-4.4,1.2-8.9-1.6-13.3-2.4c0-0.8,0-1.2,0-1.6c-6,4-4.4,12.1-5.6,18.1c1.6,6.9,9.3,9.7,14.1,13.7 			c7.7,1.2,14.5-2,21-4.4c1.2,1.2,2.8,2,2,3.6c-5.2,7.3-12.9,10.5-21.8,9.7c5.2,10.1,1.6,21.8-4,30.6h5.2 			C-174.7,66.4-159.8,55.2-158.6,34.2"></path>
      <path class="st0" d="M-146.9-20.2c-4.4-15.3-18.1-35.9-36.3-34.7c-6.9,0.4-13.7,5.6-16.1,9.7c4.8,2.8,10.1,6.9,14.5,10.9 			c-0.4,1.6,0.8,3.6-1.2,4.4c-2.4-2-4.4-6.9-7.7-5.2c2.4,5.2,8.9,5.6,13.7,6.9c2,2,1.2,5.2,5.2,3.6c2,0.4,2.8,2.8,3.2,4.4 			c-3.2,6-12.1,2-16.9,3.2c4,1.6,8.5,2,12.1,4.4c3.6,2.4,4.8-3.2,6.4-5.2c6.4,1.6,2.8,8.5,5.6,12.1c13.7,14.1,10.9,39.1,4,55.2 			C-141.2,33-142.8-4.9-146.9-20.2"></path>
    </g>
  </g>
</svg>