<svg style="enable-background:new -242 -68.6 751.4 142.3;"
  xmlns="http://www.w3.org/2000/svg" viewBox="-158.37 -51.71 572.44 103.34">
  <defs>
    <style type="text/css">   .st0{fill:black;}  </style>
  </defs>
  <path class="st0" d="M 3.209 15.658 C 3.209 25.486 -0.894 34.837 -8.241 41.421 C -8.718 41.898 -9.481 41.802 -9.959 41.421 C -12.63 39.035 -15.874 36.745 -19.214 35.505 C -21.313 34.741 -24.653 34.169 -24.653 31.306 C -24.653 30.734 -24.462 30.161 -24.175 29.589 C -24.175 29.494 -24.08 29.494 -24.08 29.398 C -21.313 25.391 -19.5 20.715 -18.737 15.945 C -18.737 15.945 -18.737 15.945 -18.737 15.945 C -18.546 14.704 -18.451 13.368 -18.355 12.128 C -18.737 5.067 -24.557 -0.467 -31.618 -0.467 C -38.679 -0.467 -44.499 5.067 -44.881 12.128 C -44.881 13.368 -44.69 14.704 -44.499 15.945 C -44.499 15.945 -44.499 15.945 -44.499 15.945 C -43.736 20.811 -41.923 25.391 -39.156 29.398 C -39.156 29.494 -39.06 29.494 -39.06 29.589 C -38.774 30.066 -38.583 30.639 -38.583 31.306 C -38.583 34.169 -41.637 34.455 -43.736 35.314 C -44.117 35.505 -44.404 35.791 -44.499 36.173 C -44.594 36.554 -44.499 36.936 -44.213 37.222 C -43.354 38.176 -42.591 39.131 -41.827 40.085 C -39.537 43.043 -37.534 46.287 -35.912 49.722 L -35.912 49.817 C -35.912 49.913 -35.816 49.913 -35.816 50.008 C -35.816 50.008 -35.816 50.103 -35.816 50.199 C -35.816 50.294 -35.816 50.39 -35.816 50.485 C -35.816 51.058 -36.198 51.535 -36.77 51.63 C -36.866 51.63 -36.961 51.63 -36.961 51.63 C -37.247 51.63 -37.629 51.535 -37.82 51.248 C -44.976 43.711 -52.896 37.795 -63.01 34.837 C -63.296 34.741 -63.487 34.646 -63.678 34.551 C -63.773 34.455 -63.964 34.36 -64.059 34.264 C -66.445 32.738 -66.826 29.78 -65.49 27.394 C -63.678 23.959 -61.483 20.811 -59.956 17.185 C -56.14 7.834 -53.754 -3.711 -60.147 -12.585 C -64.155 -18.214 -70.643 -21.458 -77.608 -21.458 C -84.478 -21.458 -90.966 -18.119 -95.069 -12.585 C -101.462 -3.806 -99.077 7.834 -95.26 17.185 C -93.733 20.811 -91.539 23.959 -89.726 27.394 C -88.486 29.78 -88.867 32.738 -91.157 34.264 C -91.253 34.36 -91.443 34.455 -91.539 34.551 C -91.73 34.646 -92.016 34.741 -92.207 34.837 C -102.321 37.795 -110.24 43.711 -117.397 51.248 C -117.587 51.439 -117.969 51.63 -118.255 51.63 C -118.351 51.63 -118.446 51.63 -118.446 51.63 C -119.019 51.535 -119.4 51.058 -119.4 50.485 C -119.4 50.39 -119.4 50.294 -119.4 50.199 C -119.4 50.103 -119.4 50.103 -119.4 50.008 C -119.4 49.913 -119.305 49.817 -119.305 49.817 L -119.305 49.722 C -117.683 46.287 -115.679 43.043 -113.389 40.085 C -112.626 39.131 -111.862 38.081 -111.004 37.222 C -110.717 36.936 -110.622 36.554 -110.717 36.173 C -110.813 35.791 -111.099 35.505 -111.481 35.314 C -113.485 34.455 -116.633 34.074 -116.633 31.306 C -116.633 30.734 -116.442 30.161 -116.156 29.589 C -116.156 29.494 -116.061 29.494 -116.061 29.398 C -113.294 25.391 -111.481 20.715 -110.717 15.945 C -110.717 15.945 -110.717 15.945 -110.717 15.945 C -110.527 14.704 -110.431 13.368 -110.336 12.128 C -110.717 5.067 -116.538 -0.467 -123.599 -0.467 C -130.659 -0.467 -136.48 5.067 -136.861 12.128 C -136.861 13.368 -136.671 14.704 -136.48 15.945 C -136.48 15.945 -136.48 15.945 -136.48 15.945 C -135.716 20.811 -133.903 25.391 -131.136 29.398 C -131.136 29.494 -131.041 29.494 -131.041 29.589 C -130.755 30.066 -130.564 30.639 -130.564 31.306 C -130.564 34.169 -133.999 34.741 -136.003 35.505 C -139.438 36.841 -142.586 39.035 -145.258 41.421 C -145.735 41.898 -146.498 41.898 -146.975 41.421 C -157.185 32.165 -160.906 17.853 -156.612 4.781 C -152.319 -8.291 -140.773 -17.642 -127.129 -18.978 C -126.652 -19.073 -126.27 -19.264 -126.175 -19.741 C -117.778 -39.11 -98.695 -51.705 -77.608 -51.705 C -56.521 -51.705 -37.438 -39.11 -29.042 -19.741 C -28.851 -19.359 -28.469 -19.073 -28.088 -18.978 C -10.34 -17.165 3.209 -2.184 3.209 15.658" style="" transform="matrix(1, 0, 0, 1, 0, -1.4210854715202004e-14)"></path>
  <path class="st1" d="M 71.145 -13.348 C 71.145 -10.199 70.572 -7.337 69.523 -4.856 C 67.424 -5.047 65.134 -5.238 63.798 -5.238 C 61.699 -5.238 58.645 -4.856 56.737 -3.902 C 54.542 -2.852 53.016 -0.944 53.016 3.254 L 53.016 32.833 C 50.249 34.169 47.1 34.646 43.474 34.646 L 43.474 -1.039 C 43.474 -6.669 45.669 -9.627 50.726 -11.726 C 54.638 -13.348 59.695 -14.111 63.607 -14.111 C 66.183 -14.207 68.759 -13.921 71.145 -13.348 M 99.674 34.551 C 83.835 34.551 74.103 24.627 74.103 10.22 C 74.103 -4.188 83.644 -14.111 98.338 -14.111 C 110.742 -14.111 119.711 -6.955 119.711 4.781 C 119.711 11.651 116.563 13.75 109.311 13.75 L 83.835 13.75 C 85.171 21.574 91.277 25.963 100.151 25.963 C 104.54 25.963 109.12 24.914 112.364 23.864 C 113.509 26.249 113.986 29.017 113.986 32.165 C 109.311 33.692 104.54 34.455 99.674 34.551 C 99.674 34.551 99.674 34.551 99.674 34.551 Z M 106.353 6.117 C 109.502 6.117 110.361 4.781 110.361 2.777 C 110.361 -2.566 104.636 -5.81 98.243 -5.81 C 90.991 -5.81 85.266 -1.517 83.835 6.212 L 106.353 6.212 L 106.353 6.117 Z M 125.818 10.22 C 125.818 -4.093 135.55 -14.111 151.389 -14.111 C 156.16 -14.111 160.835 -13.253 165.225 -11.726 C 165.225 -8.577 164.747 -5.906 163.602 -3.52 C 159.881 -4.761 155.874 -5.429 151.962 -5.524 C 141.752 -5.524 135.359 0.678 135.359 10.22 C 135.359 19.761 141.752 25.772 151.771 25.772 C 156.065 25.772 160.74 24.723 163.889 23.578 C 164.938 26.059 165.511 28.826 165.511 32.07 C 160.931 33.692 156.16 34.551 151.389 34.551 C 135.55 34.551 125.818 24.532 125.818 10.22 M 202.627 -13.348 C 202.627 -10.199 202.055 -7.337 201.005 -4.856 C 198.906 -5.047 196.616 -5.238 195.28 -5.238 C 193.086 -5.238 190.128 -4.856 188.22 -3.902 C 186.025 -2.852 184.498 -0.944 184.498 3.254 L 184.498 32.833 C 181.731 34.169 178.583 34.646 174.957 34.646 L 174.957 -1.039 C 174.957 -6.669 177.151 -9.627 182.209 -11.726 C 186.121 -13.348 191.178 -14.111 195.09 -14.111 C 197.666 -14.207 200.147 -13.921 202.627 -13.348 M 218.944 12.796 C 218.944 20.143 222.951 25.772 230.489 25.772 C 231.729 25.772 234.783 25.582 237.359 24.627 C 240.03 23.578 240.985 21.86 240.985 19.284 L 240.985 -12.298 C 243.752 -13.634 246.9 -14.111 250.526 -14.111 L 250.526 21.574 C 250.526 27.204 248.236 30.257 243.275 32.261 C 239.362 33.787 233.733 34.646 229.63 34.646 C 217.131 34.646 209.402 26.44 209.402 13.75 L 209.402 -12.203 C 212.169 -13.539 215.318 -14.016 218.944 -14.016 C 218.944 -14.207 218.944 12.796 218.944 12.796 Z M 274.285 -28.328 C 274.285 -24.893 271.518 -22.031 267.987 -22.031 C 264.552 -22.031 261.69 -24.798 261.69 -28.328 C 261.69 -31.763 264.457 -34.626 267.987 -34.626 C 269.609 -34.626 271.231 -33.958 272.376 -32.813 C 273.617 -31.572 274.285 -29.95 274.285 -28.328 Z M 272.758 32.642 C 269.991 33.978 266.842 34.455 263.216 34.455 L 263.216 -12.394 C 265.983 -13.73 269.132 -14.207 272.758 -14.207 L 272.758 32.642 Z M 298.52 -4.57 L 298.52 17.948 C 298.52 24.627 303.005 25.772 311.21 25.772 C 311.21 29.017 310.733 31.784 309.588 34.169 C 308.443 34.455 307.298 34.551 306.153 34.551 C 301.192 34.551 293.654 33.406 290.601 26.727 C 289.265 23.769 289.074 20.334 289.074 16.612 L 289.074 -4.474 L 280.677 -4.474 C 280.677 -7.814 281.155 -10.676 282.395 -13.157 L 289.169 -13.157 L 289.169 -26.42 C 291.936 -27.756 295.085 -28.233 298.711 -28.233 L 298.711 -13.062 L 311.688 -13.062 C 311.688 -9.818 311.21 -6.86 309.97 -4.379 L 298.52 -4.57 Z M 342.316 34.551 C 326.477 34.551 316.745 24.627 316.745 10.22 C 316.745 -4.188 326.286 -14.111 340.98 -14.111 C 353.384 -14.111 362.353 -6.955 362.353 4.781 C 362.353 11.651 359.205 13.75 351.953 13.75 L 326.477 13.75 C 327.813 21.574 333.919 25.963 342.793 25.963 C 347.182 25.963 351.762 24.914 355.006 23.864 C 356.151 26.249 356.628 29.017 356.628 32.165 C 351.953 33.692 347.087 34.455 342.316 34.551 Z M 348.995 6.117 C 352.144 6.117 353.002 4.781 353.002 2.777 C 353.002 -2.566 347.278 -5.81 340.885 -5.81 C 333.633 -5.81 327.908 -1.517 326.477 6.212 L 348.995 6.212 L 348.995 6.117 Z M 394.031 34.551 C 378.192 34.551 368.46 24.627 368.46 10.22 C 368.46 -4.188 378.001 -14.111 392.695 -14.111 C 405.099 -14.111 414.068 -6.955 414.068 4.781 C 414.068 11.651 410.92 13.75 403.668 13.75 L 378.192 13.75 C 379.528 21.574 385.635 25.963 394.508 25.963 C 398.897 25.963 403.477 24.914 406.721 23.864 C 407.866 26.249 408.344 29.017 408.344 32.165 C 403.668 33.692 398.897 34.455 394.031 34.551 Z M 400.806 6.117 C 403.954 6.117 404.813 4.781 404.813 2.777 C 404.813 -2.566 399.088 -5.81 392.695 -5.81 C 385.444 -5.81 379.719 -1.517 378.288 6.212 L 400.806 6.212 L 400.806 6.117 Z" style="" transform="matrix(1, 0, 0, 1, 0, -1.4210854715202004e-14)"></path>
</svg>